<?xml version="1.0" encoding="UTF-8"?>
<svg width="64" height="64" viewBox="0 0 64 64" fill="none" xmlns="http://www.w3.org/2000/svg">
  <!-- Toolbox body -->
  <rect x="8" y="20" width="48" height="36" rx="2" fill="black"/>
  
  <!-- Toolbox top -->
  <path d="M16 20V14C16 12.8954 16.8954 12 18 12H46C47.1046 12 48 12.8954 48 14V20H16Z" fill="#333333"/>
  
  <!-- Handle -->
  <rect x="26" y="8" width="12" height="4" rx="2" fill="#555555"/>
  
  <!-- Tools inside -->
  <rect x="14" y="26" width="36" height="2" rx="1" fill="white"/>
  <rect x="14" y="32" width="36" height="2" rx="1" fill="white"/>
  <rect x="14" y="38" width="36" height="2" rx="1" fill="white"/>
  <rect x="14" y="44" width="36" height="2" rx="1" fill="white"/>
  
  <!-- Image icon overlay -->
  <rect x="24" y="28" width="16" height="16" rx="1" fill="#333333"/>
  <rect x="26" y="30" width="12" height="8" rx="1" fill="white"/>
</svg> 